ply
format ascii 1.0
element vertex 464
property float x
property float y
property float z
property uchar red
property uchar green
property uchar blue
end_header
0.0448364 7.08482 8.07536 45 46 50
0.100294 7.15511 8.45763 102 114 114
0.148323 7.05421 8.0611 32 26 28
0.200352 7.15301 8.54497 95 100 104
0.267853 7.09837 8.47876 53 53 55
0.306346 7.20082 8.84873 33 30 23
0.295089 7.08785 8.4313 112 108 109
0.388184 7.14694 8.77462 86 81 85
0.369278 7.03045 8.29396 137 135 138
0.388231 7.12827 8.6794 66 61 65
0.396389 2.98123 4.31803 119 101 97
0.434249 2.96618 4.31998 72 54 54
0.63127 2.85605 4.35355 98 78 71
0.637304 2.88436 4.11555 105 97 86
0.772159 2.80088 4.12786 160 159 164
0.721637 2.86585 3.8469 95 79 79
0.75183 2.84422 3.93707 69 58 62
0.815174 2.78411 4.1839 130 135 141
0.802312 2.80193 4.0628 86 62 58
0.809326 2.79604 4.08682 116 114 117
0.821973 2.79461 4.03927 114 96 94
0.784183 2.82577 3.83759 104 88 88
0.819951 1.35772 3.92803 202 205 184
0.802811 2.82805 3.78415 85 58 51
0.820825 2.80465 3.83595 65 50 55
0.812377 2.82915 3.74466 126 115 109
0.857389 2.77973 3.90622 114 103 97
0.851045 2.79914 3.85313 134 126 107
0.895952 2.76161 3.93592 78 62 63
0.966587 2.22947 4.20053 80 73 80
0.915928 2.74252 3.93509 160 142 142
0.846204 0.990899 3.62778 111 91 64
0.915164 2.7636 3.89958 124 112 112
1.00314 2.22561 4.16322 79 85 97
0.89995 2.79982 3.6816 85 58 47
0.89995 2.79982 3.6816 85 58 47
0.908996 0.767186 3.68109 153 149 137
1.01328 1.54513 4.05141 211 210 180
0.986014 1.39825 3.93943 112 92 42
0.917679 0.956318 3.59825 213 215 204
0.944222 0.71948 3.69116 216 217 201
1.00387 2.70931 3.87615 105 77 73
1.08824 2.6925 4.12625 32 24 35
0.955007 0.79062 3.61904 158 146 120
0.991213 2.73422 3.72699 72 50 53
1.10842 2.03104 4.16218 118 118 116
1.03893 2.70519 3.88351 146 129 137
0.985241 2.73938 3.67899 146 123 115
1.00583 1.15134 3.72304 91 78 36
1.03583 2.69635 3.8201 89 80 83
0.989335 0.958062 3.62695 122 103 60
1.12302 2.70225 4.08458 123 123 135
0.995513 1.0075 3.61809 134 111 67
1.02704 2.72606 3.68611 78 53 56
1.06679 2.68793 3.818 131 133 146
1.06679 2.68793 3.818 131 133 146
1.07133 2.6835 3.77608 84 83 91
1.03704 0.97592 3.62837 200 200 176
1.11968 2.68196 3.89134 154 164 189
1.06403 0.921639 3.65631 214 217 198
1.04987 0.784682 3.59338 222 224 211
1.06506 2.70782 3.63879 76 57 61
1.09163 2.69678 3.69729 104 82 85
1.07059 0.618271 3.61503 221 227 215
1.08554 1.06827 3.63907 217 222 215
1.21396 1.96889 4.01413 207 210 199
1.13885 2.66174 3.75401 80 86 98
1.07678 2.71785 3.54722 63 48 53
1.11958 2.66463 3.67886 117 115 116
1.11272 0.52701 3.59347 207 204 169
1.15708 2.65706 3.73262 132 140 153
1.1311 1.14746 3.6189 222 220 207
1.14782 0.986813 3.67263 94 75 43
1.11567 0.725507 3.53697 216 214 199
1.11564 0.78594 3.53341 158 139 97
1.1457 2.66888 3.62768 91 79 83
1.14295 0.872491 3.60178 131 113 75
1.261 1.9516 3.97349 201 203 189
1.12659 0.829935 3.53989 198 195 162
1.16053 2.65195 3.62076 153 140 131
1.16234 2.66491 3.60114 87 76 90
1.16646 1.14906 3.61102 157 149 113
1.18442 0.994836 3.65505 182 175 146
1.15359 0.806842 3.54124 193 188 159
1.22402 2.63917 3.74455 146 145 151
1.17856 0.592851 3.58668 217 223 219
1.18379 2.64354 3.58985 164 154 155
1.20739 1.16235 3.63903 155 141 102
1.21292 2.63069 3.62186 169 177 180
1.27789 2.04874 3.80624 101 81 70
1.27789 2.04874 3.80624 101 81 70
1.29839 2.47874 3.85844 85 74 82
1.23551 0.552327 3.61589 104 95 80
1.22847 0.766709 3.55309 156 150 126
1.23041 2.62474 3.54275 177 177 189
1.23793 2.61671 3.55662 149 156 164
1.26908 0.461556 3.64396 118 105 71
1.2698 1.04249 3.63103 210 212 191
1.34095 2.5994 3.82172 45 29 32
1.24831 0.724162 3.54902 211 215 201
1.36839 1.84191 3.86323 119 114 85
1.38904 1.9387 3.89491 81 88 96
1.42639 1.94194 3.97365 87 77 76
1.29213 0.847176 3.59781 109 87 38
1.43999 1.93559 4.00215 19 11 0
1.28019 0.750492 3.53225 207 208 194
1.34184 2.60732 3.66914 147 149 161
1.34184 2.60732 3.66914 147 149 161
1.46713 1.93275 3.98416 77 77 75
1.31475 0.64019 3.54355 155 148 122
1.28976 2.60917 3.47415 160 148 148
1.29527 2.59342 3.48497 94 74 63
1.28242 2.6223 3.44982 138 128 127
1.33162 0.577341 3.56685 214 218 204
1.40628 2.47267 3.75859 35 17 7
1.38805 2.59401 3.69109 93 73 66
1.38349 1.01087 3.66549 161 153 116
1.35263 0.550254 3.58272 160 152 141
1.33201 0.710987 3.52095 205 206 188
1.34638 0.683367 3.53828 143 129 102
1.34638 0.683367 3.53828 143 129 102
1.35524 0.571077 3.55764 210 210 202
1.40958 0.468582 3.6377 135 135 133
1.38178 0.565634 3.55001 152 142 132
1.37531 0.705314 3.52345 145 139 117
1.43703 2.57941 3.66464 134 125 128
1.45546 1.03154 3.66665 202 205 186
1.40739 0.733167 3.5289 134 123 91
1.32804 2.62118 3.28836 105 87 77
1.31257 2.63587 3.23635 120 115 122
1.55559 2.55212 3.73056 120 123 130
1.49118 0.639606 3.55691 127 108 68
1.54186 0.489251 3.63626 209 216 200
1.55618 1.35669 3.64948 141 128 96
1.5685 1.22953 3.6471 167 160 132
1.58358 2.54425 3.63449 110 89 84
1.60497 0.531532 3.62038 153 145 124
1.6281 1.21156 3.65685 222 229 222
1.6281 1.21156 3.65685 222 229 222
1.73358 2.48195 3.81125 118 126 129
1.9201 2.49358 4.18622 131 127 124
1.69409 2.54266 3.68922 127 109 107
3.69487 4.20724 7.93207 41 93 80
3.69487 4.20724 7.93207 41 93 80
3.74798 4.17709 7.94751 108 143 139
1.77248 2.52316 3.75631 112 97 92
3.8133 4.08479 8.02416 108 200 177
3.8133 4.08479 8.02416 108 200 177
3.81344 4.02791 8.0158 59 133 106
1.81927 2.50025 3.81277 74 63 57
1.93675 2.46908 4.03873 80 81 75
1.86114 2.4796 3.86776 124 130 128
3.94212 3.97228 8.12718 103 160 141
1.91266 2.46798 3.90885 141 136 133
3.89917 3.99107 7.93516 98 163 139
3.89917 3.99107 7.93516 98 163 139
1.9909 2.4492 4.02291 128 133 127
2.02778 2.45139 4.08759 75 68 58
2.02778 2.45139 4.08759 75 68 58
1.97338 2.45667 3.96508 165 165 167
1.96089 2.45767 3.92983 61 53 50
3.91884 4.00985 7.84163 25 92 57
1.99533 2.4491 3.98224 145 143 144
2.08284 2.43249 4.06162 115 115 113
2.17533 2.48803 3.86951 130 104 91
-0.734325 7.76627 8.12424 86 81 88
-0.726161 7.86969 8.41054 109 114 118
0.597478 2.91509 4.39017 65 56 61
0.779167 2.86162 3.80816 137 129 118
0.808921 2.83251 3.93025 142 125 117
-1.63465 4.61053 60.0891 154 193 87
0.812804 2.81544 4.23722 141 140 148
0.879164 0.920958 3.64102 155 131 87
0.886886 0.802608 3.70976 161 152 137
0.883278 1.48013 4.00652 168 160 123
0.89001 1.39747 3.97936 170 166 129
1.30009 -7.17936 -14.0116 27 92 94
0.921177 1.03617 3.61528 154 139 98
0.935091 2.77995 3.63084 83 59 47
0.935091 2.77995 3.63084 83 59 47
0.944533 2.76885 3.65825 129 106 100
0.962995 2.75568 4.06253 97 95 106
0.988428 2.76012 3.5649 77 47 36
1.01311 1.03745 3.67605 107 83 37
1.28927 2.92763 38.384 144 204 240
1.03084 2.73246 3.55167 126 107 101
1.0422 2.71578 3.6353 88 59 51
1.0584 2.73862 4.18746 126 127 131
1.66423 2.34023 35.0426 68 146 218
1.66423 2.34023 35.0426 68 146 218
1.07666 2.70944 3.53378 72 53 49
1.09614 2.65533 3.46149 68 49 51
1.10378 2.69908 3.54229 142 124 102
1.11854 2.85367 3.54824 86 60 59
1.11946 0.638607 3.63 91 62 28
1.11946 0.638607 3.63 91 62 28
1.12405 0.679367 3.61774 182 186 189
1.13585 2.68365 3.49724 139 122 96
1.15267 2.67068 3.80264 146 155 170
1.17104 2.00272 3.97137 89 84 81
1.1557 2.66836 3.49098 93 59 47
1.17879 0.85695 3.58968 109 94 51
1.17879 0.85695 3.58968 109 94 51
1.19475 0.733502 3.54081 150 132 92
1.21179 0.931983 3.65125 139 121 81
1.21419 0.59536 3.55928 125 121 109
1.21419 0.59536 3.55928 125 121 109
2.80065 1.63688 27.8454 124 161 91
1.25114 2.65584 3.94444 135 128 135
1.2319 0.531055 3.63701 133 117 81
1.25147 0.942293 3.68188 108 91 47
1.26276 2.62746 3.68843 147 153 165
1.2567 2.60651 3.50416 155 156 161
1.2567 2.60651 3.50416 155 156 161
2.98975 1.54572 26.6753 185 223 202
1.26527 0.61153 3.55053 185 177 154
1.27592 0.603119 3.58487 111 97 84
1.30169 2.59435 3.48788 71 53 49
1.32592 2.60418 3.67435 110 106 107
1.31609 0.518564 3.63972 203 205 194
1.39497 2.08528 4.35659 130 126 97
1.32603 0.856689 3.59916 189 183 149
1.38731 2.0286 4.15025 35 22 14
1.31742 2.60039 3.35581 133 115 111
1.32825 2.59068 3.39039 73 57 67
1.30534 2.63915 3.14166 115 112 119
1.37318 0.32997 3.88239 135 132 127
1.35209 0.486815 3.62253 206 204 192
1.34395 0.642201 3.53127 214 217 200
1.37325 2.59731 3.70509 152 135 127
1.33508 2.59615 3.27064 77 46 43
1.36201 0.468539 3.64127 125 113 99
1.32386 2.62991 3.13859 44 39 36
1.36314 0.839797 3.6026 111 94 51
1.37291 0.371597 3.71232 147 140 122
1.38798 2.45817 3.75252 86 74 76
1.36269 2.56824 3.40884 131 110 109
1.38764 0.427184 3.65334 166 162 137
1.39055 0.463708 3.64637 188 185 178
1.39066 0.526349 3.59061 163 157 123
3.5341 1.25929 21.8804 71 151 204
1.39856 0.628467 3.51471 214 217 206
1.44377 2.57566 3.79871 36 17 10
1.46418 2.57464 3.82224 35 22 13
1.44616 0.565238 3.57162 197 190 174
1.48595 0.502869 3.6377 141 118 77
1.49063 0.423019 3.67009 106 89 71
1.49063 0.423019 3.67009 106 89 71
1.49305 0.570551 3.57779 168 153 122
1.50526 0.530386 3.64235 79 46 37
1.53052 2.54625 3.64475 132 124 122
3.86476 1.0183 19.096 110 156 145
3.94516 1.05883 19.1957 167 211 220
3.94516 1.05883 19.1957 167 211 220
1.56613 1.00719 3.74702 129 115 86
1.62077 1.91689 3.89813 163 156 163
1.57328 0.480228 3.62237 146 142 117
1.57328 0.480228 3.62237 146 142 117
3.96425 1.10405 18.3044 103 127 65
1.5688 0.59738 3.58474 212 210 198
1.5688 0.59738 3.58474 212 210 198
1.59355 1.38842 3.64442 214 213 195
1.59355 1.38842 3.64442 214 213 195
1.76967 0.183969 4.78249 134 186 112
1.62079 2.52506 3.64572 121 97 93
1.64069 2.52201 3.67695 109 105 106
1.62235 0.493848 3.62328 184 178 156
1.66215 1.22731 3.65477 145 133 95
1.76225 1.86662 4.09668 85 80 74
1.6977 0.402508 3.77134 118 103 70
1.72014 0.446283 3.77551 94 73 28
1.76706 2.50074 3.78468 137 132 136
1.80195 2.50388 3.94292 129 134 137
1.76498 0.458272 3.78015 166 165 147
1.86285 2.42611 4.17031 29 16 7
2.26188 4.25866 5.79627 83 71 55
1.71942 2.44291 3.15736 165 170 173
1.71942 2.44291 3.15736 165 170 173
1.89173 2.48394 3.88118 66 57 48
1.93821 2.46542 4.06591 135 137 134
1.95272 2.47616 4.12726 122 127 123
2.08327 3.40938 4.43964 165 168 173
2.02978 2.45241 4.09599 77 71 57
2.01811 2.44679 4.02941 81 83 82
2.1372 2.91075 4.0667 162 169 175
2.14307 2.2672 3.19966 111 114 119
2.14307 2.2672 3.19966 111 114 119
-10.8674 19.2015 28.6718 88 130 146
0.456117 3.15376 4.19053 135 132 123
4.95825 -6.52989 -7.38003 117 119 140
0.358637 3.13889 4.60855 87 76 93
0.602421 2.98075 4.28957 133 124 117
0.592525 2.95136 4.54863 113 103 101
8.56926 -2.81812 -20.4537 30 23 13
9.19352 -3.35576 -22.5066 165 163 168
8.48317 -2.52832 -20.5914 106 116 105
8.59706 -2.60954 -21.8475 10 10 8
9.72512 -4.14201 -26.0346 21 20 25
9.72512 -4.14201 -26.0346 21 20 25
9.73851 -4.00882 -26.2794 129 127 114
0.99846 1.05845 3.70944 106 85 40
8.63272 -2.45215 -22.581 87 95 9
0.888693 2.79736 4.09637 98 84 83
1.04266 0.783459 3.61953 215 217 212
1.04266 0.783459 3.61953 215 217 212
0.884125 2.82844 4.33623 174 181 191
1.07467 1.0829 3.68999 221 227 223
1.07467 1.0829 3.68999 221 227 223
1.11032 0.802602 3.56948 149 133 100
1.2184 2.66343 3.22097 140 128 128
1.15912 0.486101 3.68094 216 218 205
1.29164 2.61855 3.13942 82 62 61
1.24973 2.62709 3.35682 80 59 56
1.19943 2.62385 3.59431 95 78 68
9.88123 -3.41761 -32.2817 124 151 54
9.88123 -3.41761 -32.2817 124 151 54
10.0292 -3.49427 -32.9689 130 156 59
10.0292 -3.49427 -32.9689 130 156 59
1.18439 1.06909 3.68878 92 70 23
10.3293 -4.31067 -34.4951 108 104 103
1.23724 2.61646 3.56218 165 174 179
1.17318 2.66817 3.86291 153 157 166
1.24493 0.819652 3.57555 209 213 188
1.2675 0.638975 3.5362 164 160 131
1.28042 0.761393 3.55138 218 220 217
1.24656 1.06799 3.7211 211 221 222
10.538 -3.38608 -38.227 19 13 17
1.26472 2.62082 3.68551 151 160 167
10.5944 -3.67692 -38.9952 122 111 107
10.5944 -3.67692 -38.9952 122 111 107
1.34526 2.56511 3.36271 138 126 126
1.37082 2.58258 3.25972 99 74 67
1.28564 0.426756 3.69971 140 125 96
1.28564 0.426756 3.69971 140 125 96
1.37114 2.58095 3.30618 55 34 33
10.8064 -3.82268 -41.4423 17 31 32
1.32731 0.858692 3.59258 183 178 140
1.34777 0.643994 3.51331 220 224 210
1.27671 0.386619 3.86247 155 155 147
1.33971 0.376803 3.72978 199 200 184
1.29172 1.95247 4.01856 186 187 173
1.41243 2.55557 3.46193 122 104 104
1.37581 0.449605 3.6541 204 196 175
1.43374 0.710538 3.49853 200 197 166
1.41023 0.475095 3.63712 124 124 122
1.40531 2.58713 3.74535 138 118 119
1.43541 2.5793 3.75337 122 108 105
2.11622 0.40694 1.13731 29 15 14
1.48777 2.5462 3.49061 48 31 23
1.43956 2.54776 3.79704 89 79 78
1.43956 2.54776 3.79704 89 79 78
1.45356 0.962459 3.67162 169 156 121
1.53134 2.52687 3.53639 136 129 137
1.5603 0.431657 3.65702 198 200 189
1.58931 2.51412 3.59166 127 103 101
1.54533 1.899 3.91314 87 82 79
1.59421 0.460151 3.61627 205 205 181
1.58227 0.379075 3.74885 199 195 186
1.70401 2.25286 2.75079 160 161 155
1.57398 1.90088 3.98915 65 66 71
1.63709 2.51644 3.62747 48 26 28
1.62434 0.445389 3.67199 126 109 79
1.63967 0.61318 3.64038 144 130 93
1.64703 1.30839 3.66277 201 204 187
1.6688 2.50568 3.66754 142 129 136
1.6591 1.02617 3.73098 227 235 237
1.68204 2.51204 3.67459 47 28 24
1.65917 2.25958 3.99804 79 61 47
1.66958 0.359676 3.79586 200 195 173
1.70003 2.50102 3.6975 136 131 135
1.69825 1.26544 3.65493 143 126 83
1.71033 1.20572 3.61638 212 211 191
1.6936 0.462588 3.74822 143 130 96
1.67864 1.9069 4.2865 49 43 31
1.73609 2.49484 3.78508 140 147 155
1.73067 0.387644 3.78524 209 215 211
1.74481 1.04946 3.84865 130 119 87
1.79056 2.4935 3.8057 120 116 130
1.78392 0.496872 3.82367 70 46 18
1.78806 0.419363 3.7994 112 96 63
1.8175 0.452723 3.81844 154 146 109
2.12222 2.6553 3.97498 117 122 126
1.85494 2.49293 4.04804 78 60 48
2.01678 0.374651 1.55809 149 138 106
1.86362 2.50661 4.1743 108 99 92
1.93435 2.72084 3.65959 166 175 180
1.91978 2.4952 4.2166 130 125 119
1.94735 2.46491 3.94915 119 108 114
1.99795 2.44959 3.99302 139 137 140
2.02596 2.45442 4.0087 50 41 36
2.00297 0.596328 4.08398 169 153 119
2.05182 2.44311 4.05927 120 118 119
2.12876 2.43019 4.1239 136 128 125
2.2864 2.44584 4.15059 46 28 16
2.31486 2.57575 4.21687 65 35 24
2.3973 1.55567 2.63456 106 111 117
21.7035 -4.33117 -24.0393 200 218 228
21.6067 -3.24624 -25.0936 87 82 79
21.8908 -3.15348 -25.856 190 204 217
0.709082 3.03617 3.83406 121 106 113
9.45373 -9.00883 -10.6436 161 165 174
3.93003 -1.03597 -0.70585 167 153 114
0.893366 1.05978 3.68853 148 133 90
1.26137 2.69373 3.24068 127 121 133
5.04104 -3.80167 -3.60238 129 129 127
1.29821 2.68276 3.22373 42 35 27
0.847304 2.80549 4.27703 114 103 99
1.2128 2.65654 3.61715 168 179 185
1.34585 2.63788 3.3499 57 44 38
1.10868 2.70365 3.85219 115 115 123
1.10868 2.70365 3.85219 115 115 123
1.13579 0.9944 3.70679 79 56 24
1.3608 2.62986 3.37896 60 46 45
1.25932 0.646658 3.55354 171 165 149
1.28693 0.634597 3.55499 211 213 199
1.45223 2.60564 3.4452 74 46 45
1.54643 2.43845 3.25715 107 93 92
1.54643 2.43845 3.25715 107 93 92
1.36477 2.61168 3.69488 149 147 150
1.37841 0.918623 3.68408 215 222 206
1.41299 2.57033 3.79642 39 20 14
1.41555 0.988577 3.67973 201 194 166
1.41555 0.988577 3.67973 201 194 166
-1.17597 9.51918 10.7466 41 27 18
1.53536 2.56382 3.56826 47 33 30
1.49299 0.6342 3.53163 121 103 65
1.49623 0.701227 3.57577 132 114 78
1.38438 1.87818 4.00208 122 118 89
1.50924 0.541035 3.62233 82 60 36
0.970614 3.9688 5.32209 63 44 46
1.46973 0.355328 3.73883 203 202 184
1.55416 1.35046 3.64799 126 118 82
1.46303 1.93022 4.02266 79 88 93
1.60208 1.2913 3.62803 210 214 199
1.51416 1.79263 4.02243 159 155 126
1.66632 1.21581 3.62585 137 126 96
1.6931 1.39831 3.70247 164 156 119
1.70335 1.3663 3.71291 104 85 43
1.72699 1.30328 3.66998 173 164 133
1.7427 1.24557 3.68033 136 118 80
1.64162 1.91006 4.09848 88 84 85
1.82038 2.4921 3.74308 120 106 103
1.76513 1.2093 3.78139 143 129 84
1.82754 2.4856 3.78448 65 51 42
1.7215 1.83722 4.04931 74 74 72
1.71951 1.85181 4.06038 90 91 86
1.86363 2.48366 3.75347 56 42 31
1.8364 2.46159 3.85373 73 74 76
1.81491 2.46618 4.02516 97 83 70
1.77389 1.83551 4.08692 65 57 55
1.71957 3.01076 4.51411 53 37 38
1.82324 2.44135 4.08464 59 58 54
1.82803 2.45847 4.08729 29 19 10
1.84461 2.4534 4.10248 24 15 10
1.94712 2.07092 3.85285 55 48 42
1.50633 1.14048 5.40827 118 102 68
1.92303 0.605656 3.80844 128 110 64
2.07417 1.15497 4.28805 168 174 162
2.04702 2.40266 4.03694 80 70 61
2.07262 2.39353 3.97893 117 113 112
2.12671 2.37534 4.01874 102 107 103
2.14961 2.40238 3.98016 57 42 39
2.7612 0.377853 1.28878 109 108 114
2.78353 0.411816 1.43002 64 64 62
