ply
format ascii 1.0
element vertex 165
property float x
property float y
property float z
property uchar red
property uchar green
property uchar blue
end_header
0.0448364 7.08482 8.07536 45 46 50
0.100294 7.15511 8.45763 102 114 114
0.148323 7.05421 8.0611 32 26 28
0.200352 7.15301 8.54497 95 100 104
0.267853 7.09837 8.47876 53 53 55
0.306346 7.20082 8.84873 33 30 23
0.295089 7.08785 8.4313 112 108 109
0.388184 7.14694 8.77462 86 81 85
0.369278 7.03045 8.29396 137 135 138
0.388231 7.12827 8.6794 66 61 65
0.396389 2.98123 4.31803 119 101 97
0.434249 2.96618 4.31998 72 54 54
0.63127 2.85605 4.35355 98 78 71
0.637304 2.88436 4.11555 105 97 86
0.772159 2.80088 4.12786 160 159 164
0.721637 2.86585 3.8469 95 79 79
0.75183 2.84422 3.93707 69 58 62
0.815174 2.78411 4.1839 130 135 141
0.802312 2.80193 4.0628 86 62 58
0.809326 2.79604 4.08682 116 114 117
0.821973 2.79461 4.03927 114 96 94
0.784183 2.82577 3.83759 104 88 88
0.819951 1.35772 3.92803 202 205 184
0.802811 2.82805 3.78415 85 58 51
0.820825 2.80465 3.83595 65 50 55
0.812377 2.82915 3.74466 126 115 109
0.857389 2.77973 3.90622 114 103 97
0.851045 2.79914 3.85313 134 126 107
0.895952 2.76161 3.93592 78 62 63
0.966587 2.22947 4.20053 80 73 80
0.915928 2.74252 3.93509 160 142 142
0.846204 0.990899 3.62778 111 91 64
0.915164 2.7636 3.89958 124 112 112
1.00314 2.22561 4.16322 79 85 97
0.89995 2.79982 3.6816 85 58 47
0.89995 2.79982 3.6816 85 58 47
0.908996 0.767186 3.68109 153 149 137
1.01328 1.54513 4.05141 211 210 180
0.986014 1.39825 3.93943 112 92 42
0.917679 0.956318 3.59825 213 215 204
0.944222 0.71948 3.69116 216 217 201
1.00387 2.70931 3.87615 105 77 73
1.08824 2.6925 4.12625 32 24 35
0.955007 0.79062 3.61904 158 146 120
0.991213 2.73422 3.72699 72 50 53
1.10842 2.03104 4.16218 118 118 116
1.03893 2.70519 3.88351 146 129 137
0.985241 2.73938 3.67899 146 123 115
1.00583 1.15134 3.72304 91 78 36
1.03583 2.69635 3.8201 89 80 83
0.989335 0.958062 3.62695 122 103 60
1.12302 2.70225 4.08458 123 123 135
0.995513 1.0075 3.61809 134 111 67
1.02704 2.72606 3.68611 78 53 56
1.06679 2.68793 3.818 131 133 146
1.06679 2.68793 3.818 131 133 146
1.07133 2.6835 3.77608 84 83 91
1.03704 0.97592 3.62837 200 200 176
1.11968 2.68196 3.89134 154 164 189
1.06403 0.921639 3.65631 214 217 198
1.04987 0.784682 3.59338 222 224 211
1.06506 2.70782 3.63879 76 57 61
1.09163 2.69678 3.69729 104 82 85
1.07059 0.618271 3.61503 221 227 215
1.08554 1.06827 3.63907 217 222 215
1.21396 1.96889 4.01413 207 210 199
1.13885 2.66174 3.75401 80 86 98
1.07678 2.71785 3.54722 63 48 53
1.11958 2.66463 3.67886 117 115 116
1.11272 0.52701 3.59347 207 204 169
1.15708 2.65706 3.73262 132 140 153
1.1311 1.14746 3.6189 222 220 207
1.14782 0.986813 3.67263 94 75 43
1.11567 0.725507 3.53697 216 214 199
1.11564 0.78594 3.53341 158 139 97
1.1457 2.66888 3.62768 91 79 83
1.14295 0.872491 3.60178 131 113 75
1.261 1.9516 3.97349 201 203 189
1.12659 0.829935 3.53989 198 195 162
1.16053 2.65195 3.62076 153 140 131
1.16234 2.66491 3.60114 87 76 90
1.16646 1.14906 3.61102 157 149 113
1.18442 0.994836 3.65505 182 175 146
1.15359 0.806842 3.54124 193 188 159
1.22402 2.63917 3.74455 146 145 151
1.17856 0.592851 3.58668 217 223 219
1.18379 2.64354 3.58985 164 154 155
1.20739 1.16235 3.63903 155 141 102
1.21292 2.63069 3.62186 169 177 180
1.27789 2.04874 3.80624 101 81 70
1.27789 2.04874 3.80624 101 81 70
1.29839 2.47874 3.85844 85 74 82
1.23551 0.552327 3.61589 104 95 80
1.22847 0.766709 3.55309 156 150 126
1.23041 2.62474 3.54275 177 177 189
1.23793 2.61671 3.55662 149 156 164
1.26908 0.461556 3.64396 118 105 71
1.2698 1.04249 3.63103 210 212 191
1.34095 2.5994 3.82172 45 29 32
1.24831 0.724162 3.54902 211 215 201
1.36839 1.84191 3.86323 119 114 85
1.38904 1.9387 3.89491 81 88 96
1.42639 1.94194 3.97365 87 77 76
1.29213 0.847176 3.59781 109 87 38
1.43999 1.93559 4.00215 19 11 0
1.28019 0.750492 3.53225 207 208 194
1.34184 2.60732 3.66914 147 149 161
1.34184 2.60732 3.66914 147 149 161
1.46713 1.93275 3.98416 77 77 75
1.31475 0.64019 3.54355 155 148 122
1.28976 2.60917 3.47415 160 148 148
1.29527 2.59342 3.48497 94 74 63
1.28242 2.6223 3.44982 138 128 127
1.33162 0.577341 3.56685 214 218 204
1.40628 2.47267 3.75859 35 17 7
1.38805 2.59401 3.69109 93 73 66
1.38349 1.01087 3.66549 161 153 116
1.35263 0.550254 3.58272 160 152 141
1.33201 0.710987 3.52095 205 206 188
1.34638 0.683367 3.53828 143 129 102
1.34638 0.683367 3.53828 143 129 102
1.35524 0.571077 3.55764 210 210 202
1.40958 0.468582 3.6377 135 135 133
1.38178 0.565634 3.55001 152 142 132
1.37531 0.705314 3.52345 145 139 117
1.43703 2.57941 3.66464 134 125 128
1.45546 1.03154 3.66665 202 205 186
1.40739 0.733167 3.5289 134 123 91
1.32804 2.62118 3.28836 105 87 77
1.31257 2.63587 3.23635 120 115 122
1.55559 2.55212 3.73056 120 123 130
1.49118 0.639606 3.55691 127 108 68
1.54186 0.489251 3.63626 209 216 200
1.55618 1.35669 3.64948 141 128 96
1.5685 1.22953 3.6471 167 160 132
1.58358 2.54425 3.63449 110 89 84
1.60497 0.531532 3.62038 153 145 124
1.6281 1.21156 3.65685 222 229 222
1.6281 1.21156 3.65685 222 229 222
1.73358 2.48195 3.81125 118 126 129
1.9201 2.49358 4.18622 131 127 124
1.69409 2.54266 3.68922 127 109 107
3.69487 4.20724 7.93207 41 93 80
3.69487 4.20724 7.93207 41 93 80
3.74798 4.17709 7.94751 108 143 139
1.77248 2.52316 3.75631 112 97 92
3.8133 4.08479 8.02416 108 200 177
3.8133 4.08479 8.02416 108 200 177
3.81344 4.02791 8.0158 59 133 106
1.81927 2.50025 3.81277 74 63 57
1.93675 2.46908 4.03873 80 81 75
1.86114 2.4796 3.86776 124 130 128
3.94212 3.97228 8.12718 103 160 141
1.91266 2.46798 3.90885 141 136 133
3.89917 3.99107 7.93516 98 163 139
3.89917 3.99107 7.93516 98 163 139
1.9909 2.4492 4.02291 128 133 127
2.02778 2.45139 4.08759 75 68 58
2.02778 2.45139 4.08759 75 68 58
1.97338 2.45667 3.96508 165 165 167
1.96089 2.45767 3.92983 61 53 50
3.91884 4.00985 7.84163 25 92 57
1.99533 2.4491 3.98224 145 143 144
2.08284 2.43249 4.06162 115 115 113
2.17533 2.48803 3.86951 130 104 91
